<?xml version="1.0" encoding="UTF-8"?>
<svg width="14px" height="13px" viewBox="0 0 14 13" version="1.1" xmlns="http://www.w3.org/2000/svg" xmlns:xlink="http://www.w3.org/1999/xlink">
    <!-- Generator: Sketch 64 (93537) - https://sketch.com -->
    <title>编组 2</title>
    <desc>Created with Sketch.</desc>
    <g id="1.3.0版本新增上门服务+优化" stroke="none" stroke-width="1" fill="none" fill-rule="evenodd">
        <g id="验证报告界面" transform="translate(-161.000000, -274.000000)">
            <g id="81hws2k5oqmzk复制备份" transform="translate(98.666667, 271.000000)">
                <g id="81hws2k5oqmzk复制" transform="translate(-0.689431, -2.489204)">
                    <g id="编组-2" transform="translate(63.689431, 5.489204)">
                        <circle id="椭圆形" fill="#000000" opacity="0.5" cx="6.22222222" cy="6.22222222" r="6.22222222"></circle>
                        <path d="M6.71062942,6.30141736 L9.09062942,3.92141736 C9.2287006,3.78334617 9.2287006,3.55948855 9.09062942,3.42141736 C8.95255823,3.28334617 8.7287006,3.28334617 8.59062942,3.42141736 L6.21062942,5.80141736 L3.83062942,3.44641736 C3.69255823,3.30834617 3.4687006,3.30834617 3.33062942,3.44641736 C3.19255823,3.58448855 3.19255823,3.80834617 3.33062942,3.94641736 L5.71062942,6.30141736 L3.35562942,8.68141736 C3.21755823,8.81948855 3.21755823,9.04334617 3.35562942,9.18141736 C3.4937006,9.31948855 3.71755823,9.31948855 3.85562942,9.18141736 L6.21062942,6.80141736 L8.59062942,9.18141736 C8.67994581,9.27073376 8.8101273,9.30561578 8.93213577,9.27292371 C9.05414423,9.24023164 9.1494437,9.14493218 9.18213577,9.02292371 C9.21482784,8.90091524 9.17994581,8.77073376 9.09062942,8.68141736 L6.71062942,6.30141736 Z" id="路径" fill="#FFFFFF" fill-rule="nonzero"></path>
                    </g>
                </g>
            </g>
        </g>
    </g>
</svg>