<?xml version="1.0" standalone="no"?><!DOCTYPE svg PUBLIC "-//W3C//DTD SVG 1.1//EN" "http://www.w3.org/Graphics/SVG/1.1/DTD/svg11.dtd"><svg t="1683472367217" class="icon" viewBox="0 0 1000 1000" version="1.1" xmlns="http://www.w3.org/2000/svg" p-id="20213" xmlns:xlink="http://www.w3.org/1999/xlink" width="200" height="200"><path d="M412.816 215.1012c9.2381-3.7085 19.3097-4.6099 29.1934-4.491 136.6759 0.051 273.3719 0 410.0678 0.018 13.0327-0.068 26.4372-0.4257 38.9572 3.8444 31.5259 9.9513 56.4131 39.773 58.013 73.1844V556.1529283146026c-1.3441 19.121-9.3221 37.8503-23.2742 51.1533-11.6856 11.3133-27.0478 18.8492-43.2445 20.7389-8.9983 1.1232-18.0825 0.7985-27.1177 0.8174-44.6576 0.016-89.3321-0.036-133.9886 0.034-2.8942 26.7389-9.477 54.4861-26.9149 75.7357-14.4608 17.692-36.7806 30.0246-60.0537 28.4597-9.459-0.2059-18.4752-3.2838-26.8279-7.5019-14.9725 16.227-35.6923 29.1732-58.4887 28.5436-17.1491-0.6825-35.4044-5.5782-47.5677-18.3735-4.781-4.9147-8.3017-10.8866-11.1599-17.0784-19.5825 15.5135-46.4444 21.5034-70.5181 14.2034-14.8336-3.1139-26.3512-15.0878-31.388-29.0393-31.6259 14.5281-66.8924 18.2546-101.3255 18.6464-62.9449 3.4187-125.8758 7.1432-188.8047 10.6488-10.0706 1.1053-19.4446-6.5316-20.363-16.6037v-0.7654810038793698c0.8165-4.2711 1.9737-8.7601 5.2916-11.824 3.8446-4.356 9.9677-5.1875 15.4292-5.7311 63.4566-3.4557 126.8962-7.367 190.3517-10.6848 36.2199-0.3218 74.4636-5.3064 104.7623-26.7239 30.1468-22.2179 52.2797-53.3328 81.66-76.3502 36.5077-13.251 72.9815-28.034 105.0851-50.2689 15.2603-10.8027 28.9376-25.108 34.9957-43.1417 5.4086-15.6174 2.6363-34.8054-9.9716-46.2207-8.0279-6.9573-19.5635-6.1918-29.3443-4.5069-25.4338 4.6429-48.2653 17.4372-71.1127 28.8514-52.0408 23.9528-104.0987 47.8885-156.1395 71.8413-8.1488 4.1492-19.3257 2.0226-23.8858-6.3287-4.6101-7.367-2.1936-18.0648 5.1717-22.6936 8.2168-5.3244 17.6258-8.4373 26.3522-12.8443 0.0839-67.894 0.016-135.7879 0.034-203.6649 0.034-3.6405 0.3568-7.2461 0.6976-10.8526-9.3231-4.7638-20.9936-5.835-30.1798-0.1879-18.817 11.1944-32.6982 28.6995-50.187 41.6638-51.2583 39.874-104.4055 77.2316-157.1939 115.031-7.7401 4.9846-14.7336 12.7763-24.5154 13.0991-8.8464 0.1549-15.8039-7.2811-17.302-15.5994v-0.6635501130233702c0.3918-6.4656 3.6577-12.4016 8.9483-16.1281 58.3528-41.9156 117.3003-83.0517 173.8842-127.3507 17.8446-15.1237 33.6845-33.4613 55.2568-43.4645 16.6884-7.6208 36.152-6.5675 52.8743 0.3917C379.4043 235.2435 394.2898 221.294 412.816 215.1012zM391.6015 297.8121c174.19 0.017 348.3811 0.017 522.5701 0-0.068-7.5369-0.2368-15.3276-3.3339-22.3359-5.4805-12.7254-16.5884-22.8125-29.6201-27.4064-8.8284-3.0449-18.3203-2.3974-27.5255-2.4493-138.3459 0-276.6738 0-415.0176 0C411.9316 245.4496 390.3424 271.9376 391.6015 297.8121zM391.6865 367.4749c-0.017 38.5139 0 77.0458-0.017 115.5616 34.1093-15.7873 68.3055-31.3707 102.3808-47.243 22.0819-11.4992 44.7095-22.5747 69.036-28.4427 16.6044-3.6745 34.6709-5.0696 50.6457 1.9387 19.2258 7.9956 31.8147 26.8618 37.1383 46.4245 6.1421 24.9071-0.5616 51.7339-15.2773 72.4029-21.4343 31.3857-56.515 48.9598-89.466 65.7144 107.6534 0.1039 215.3068 0.019 322.9793 0.036 11.0769 0.2368 22.5926-2.7411 30.8793-10.4119 9.407-8.1315 14.2719-20.584 14.102-32.8837 0.0849-61.0196-0.017-122.0423 0.05-183.0629C739.9826 367.4069 565.8426 367.4749 391.6865 367.4749zM477.9046 628.8776c-13.4224 13.236-26.1473 27.1326-39.6727 40.2667-5.7503 5.5123-12.4701 10.0032-17.8456 15.8902-0.2548 4.7448 1.2922 10.0522 5.2397 12.9942 9.475 3.6905 20.347 4.1862 29.9419 0.6156 12.2142-4.356 21.2135-14.0894 29.788-23.3592 1.8708-15.4635 4.1344-30.8931 5.4785-46.4235C486.5141 628.8616 482.2098 628.8616 477.9046 628.8776zM525.8131 628.8966c-1.3791 18.8302-4.6281 37.4756-6.3789 56.2738-0.3748 10.4109 1.4101 23.0494 10.8521 29.2432 8.6085 4.354 18.9339 6.2258 28.3609 3.6046 12.6899-4.0473 22.1149-14.0345 29.873-24.4104-3.8106-21.5544 0.2388-43.3466 3.097-64.7291C569.6871 628.8616 547.7411 628.8426 525.8131 628.8966zM626.6108 629.0995c-1.8888 18.0308-6.1071 36.0456-4.3732 54.2682 0.7835 5.2045 1.6859 12.5365 7.877 13.9475 14.2399 4.0832 28.6507-3.9803 37.4971-14.816 12.1123-15.1397 16.2626-34.8394 18.764-53.6206C666.4545 629.0145 646.5322 628.5538 626.6108 629.0995z" p-id="20214"></path></svg>