<svg width="30" height="30" viewBox="0 0 30 30" fill="none" xmlns="http://www.w3.org/2000/svg">
    <path fill-rule="evenodd" clip-rule="evenodd" d="M15 30C6.715 30 0 23.284 0 15 0 6.715 6.715 0 15 0c8.284 0 15.001 6.715 15.001 15S23.284 30 15 30z" fill="#FF443A"/>
    <path d="M14.951 7.95c-.667 0-1.207.54-1.207 1.207v4.586H9.157a1.207 1.207 0 1 0 0 2.414h4.586v4.586a1.207 1.207 0 1 0 2.414 0v-4.586h4.586a1.207 1.207 0 1 0 0-2.414h-4.585V9.157c0-.667-.54-1.207-1.207-1.207z" fill="#fff"/>
</svg>
