<?xml version="1.0" standalone="no"?><!DOCTYPE svg PUBLIC "-//W3C//DTD SVG 1.1//EN" "http://www.w3.org/Graphics/SVG/1.1/DTD/svg11.dtd"><svg t="1683191322840" class="icon" viewBox="0 0 1024 1024" version="1.1" xmlns="http://www.w3.org/2000/svg" p-id="7128" xmlns:xlink="http://www.w3.org/1999/xlink" width="200" height="200"><path d="M989.090909 256v442.181818c0 53.527273-32.581818 100.072727-79.127273 118.690909 6.981818-13.963636 9.309091-30.254545 9.309091-48.872727V325.818182c0-69.818182-58.181818-128-128-128H162.909091c-16.290909 0-32.581818 2.327273-48.872727 9.309091 18.618182-46.545455 65.163636-79.127273 118.690909-79.127273h628.363636c69.818182 0 128 58.181818 128 128z m-139.636364 139.636364v372.363636c0 69.818182-58.181818 128-128 128H162.909091c-69.818182 0-128-58.181818-128-128V395.636364c0-69.818182 58.181818-128 128-128h558.545454c69.818182 0 128 58.181818 128 128z m-372.363636 223.418181v-23.272727H558.545455c18.618182 0 34.909091-16.290909 34.90909-34.909091s-16.290909-34.909091-34.90909-34.909091h-32.581819l39.563637-39.563636c13.963636-13.963636 13.963636-34.909091 0-48.872727s-34.909091-13.963636-48.872728 0L442.181818 512l-74.472727-74.472727c-13.963636-13.963636-34.909091-13.963636-48.872727 0s-13.963636 34.909091 0 48.872727l39.563636 39.563636H325.818182c-18.618182 0-34.909091 16.290909-34.909091 34.909091s16.290909 34.909091 34.909091 34.909091h81.454545v23.272727H325.818182c-18.618182 0-34.909091 16.290909-34.909091 34.909091s16.290909 34.909091 34.909091 34.909091h81.454545v11.636364c0 18.618182 16.290909 34.909091 34.909091 34.909091s34.909091-16.290909 34.909091-34.909091v-11.636364H558.545455c18.618182 0 34.909091-16.290909 34.90909-34.909091s-16.290909-34.909091-34.90909-34.909091h-81.454546z" fill="#A8ABB0" p-id="7129"></path></svg>