<?xml version="1.0" standalone="no"?><!DOCTYPE svg PUBLIC "-//W3C//DTD SVG 1.1//EN" "http://www.w3.org/Graphics/SVG/1.1/DTD/svg11.dtd">


<svg t="1688457560890" class="icon" viewBox="0 0 1024 1024" version="1.1" xmlns="http://www.w3.org/2000/svg" p-id="3177" xmlns:xlink="http://www.w3.org/1999/xlink" width="200" height="200">

<path d="M464.4608 540.4416l63.36 63.36-54.528 54.528a44.8 44.8 0 0 1-66.2784-60.16l2.9184-3.1744 54.528-54.5536z m347.4176-284.032a44.8 44.8 0 0 1 2.8928 60.16l-2.8928 3.1744-238.8224 238.7968-63.36-63.3344 238.848-238.7968a44.8 44.8 0 0 1 63.3344 0z" fill="#FB553C" p-id="3178"></path><path d="M574.6688 185.6a32 32 0 0 1 3.2768 63.8464l-3.2768 0.1536H320a70.4 70.4 0 0 0-70.272 66.0992l-0.128 4.3008v384a70.4 70.4 0 0 0 66.0992 70.272l4.3008 0.128h384a70.4 70.4 0 0 0 70.272-66.0992l0.128-4.3008V512a32 32 0 0 1 63.8464-3.2768l0.1536 3.2768v192a134.4 134.4 0 0 1-128.8704 134.2976l-5.5296 0.1024h-384a134.4 134.4 0 0 1-134.2976-128.8704L185.6 704v-384a134.4 134.4 0 0 1 128.8704-134.2976l5.5296-0.1024h254.6688z" fill="#FB553C" p-id="3179"></path>


</svg>